<svg width="1187" height="2073" viewBox="0 0 1187 2073" fill="none" xmlns="http://www.w3.org/2000/svg">
<path d="M283.906 330.759C216.719 328.014 187.022 339.942 147.811 384.786C107.345 477.867 97.6428 527.061 147.811 599.256C114.527 990.468 301.152 1129.04 765.217 1054.39C779.199 1004.68 791.832 981.324 826.626 951.248C966.493 949.224 1002.99 910.309 1012.51 790.805C1085.11 391.65 936.784 223.758 576.012 199.786C494.821 204.996 453.188 212.454 391.786 240.715C330.519 275.701 304.608 295.397 283.906 330.759Z" fill="#FCC7A8" stroke="black" stroke-width="2"/>
<path d="M347.012 135.714C286.192 203.268 289.561 236.559 302.655 295.071C394.615 217.3 463.016 194.7 621.369 199.786C764.514 226.744 830.911 257.722 922.012 344.357C992.686 454.421 1014.44 511.458 1030.44 607.214C1027.76 731.89 1018.96 788.643 995.941 876.643C1057.76 865.484 1074.59 851.302 1092.87 820.786C1109.71 755.083 1128.42 720.854 1173.37 663.071C1191.62 544.249 1189.71 476.403 1158.58 352.571C1112.4 237.596 1106.01 204.714 984.441 120.929C862.869 37.1429 696.941 1 696.941 1C474.076 19.8099 439.244 37.5713 427.512 73.2857C384.385 96.2602 369.192 106.858 347.012 135.714Z" fill="#76573B" stroke="black" stroke-width="2"/>
<path d="M302.655 822.429C284.723 826.428 277.735 831.683 273.084 848.714C275.103 863.645 279.657 870.802 302.655 878.286C328.041 890.456 380.081 901.866 489.941 924.286C542.672 927.756 553.688 918.543 514.584 866.786C476.079 850.126 457.212 840.914 379.869 822.429C356.305 819.499 339.541 819.448 302.655 822.429Z" fill="#680816" stroke="black" stroke-width="2"/>
<path d="M328.941 848.715C314.16 845.655 306.419 840.356 301.012 829L347.012 827.358C346.913 837.168 343.913 842.044 328.941 848.715Z" fill="white"/>
<path d="M355.227 840.5V827.358C372.241 823.882 383.128 825.419 406.155 833.929C428.54 837.76 441.128 841.754 463.655 853.643C477.068 855.448 485.81 858.903 501.441 865.143C504.554 870.473 504.881 873.665 501.441 879.929C495.779 882.422 493.001 883.942 476.798 883.215C465.982 872.934 462.795 866.528 463.655 853.643C459.676 863.878 453.96 867.543 437.37 870.072C419.638 862.108 411.383 855.551 407.637 841.404C407.531 843.457 407.033 845.749 406.155 848.715C401.129 855.188 395.615 857.651 381.512 860.215C367.992 855.021 362.134 850.79 355.227 840.5Z" fill="white"/>
<path d="M301.012 873.358C301.102 859.143 303.187 852.699 319.084 850.358C332.13 853.178 335.822 856.539 340.441 863.5C342.598 873.464 342.666 877.829 342.084 884.858C346.555 872.125 350.16 866.416 363.441 865.143C378.132 869.673 381.353 874.433 386.441 883.215C389.898 889.194 390.718 891.927 391.37 896.358C392.157 880.547 396.319 874.695 411.084 870.072C428.696 874.724 431.225 879.379 434.084 888.143C435.816 898.928 435.431 902.504 434.164 907.541C438.113 892.027 442.238 885.869 455.441 883.215C477.264 890.255 475.586 901.502 476.798 919.358C478.195 904.185 476.944 891.608 485.012 889.786C497.726 885.515 503.237 885.513 511.298 888.143C532.695 899.925 529.379 901.249 531.012 906.215V917.715C515.009 923.522 503.023 923.828 476.798 919.358L434.084 907.858L391.37 896.358L342.084 884.858L301.012 873.358Z" fill="white"/>
<path d="M406.155 833.929C408.183 838.761 408.136 842.022 406.155 848.715C401.129 855.188 395.615 857.651 381.512 860.215C367.992 855.021 362.134 850.79 355.227 840.5V827.358C372.241 823.882 383.128 825.419 406.155 833.929ZM406.155 833.929C408.968 853.473 416.778 860.823 437.37 870.072C453.96 867.543 459.676 863.878 463.655 853.643M406.155 833.929C428.54 837.76 441.128 841.754 463.655 853.643M463.655 853.643C462.795 866.528 465.982 872.934 476.798 883.215C493.001 883.942 495.779 882.422 501.441 879.929C504.881 873.665 504.554 870.473 501.441 865.143C485.81 858.903 477.068 855.448 463.655 853.643ZM342.084 884.858C342.666 877.829 342.598 873.464 340.441 863.5C335.822 856.539 332.13 853.178 319.084 850.358C303.187 852.699 301.102 859.143 301.012 873.358L342.084 884.858ZM342.084 884.858C346.555 872.125 350.16 866.416 363.441 865.143C378.132 869.673 381.353 874.433 386.441 883.215C389.898 889.194 390.718 891.927 391.37 896.358M342.084 884.858L391.37 896.358M391.37 896.358C392.157 880.547 396.319 874.695 411.084 870.072C428.696 874.724 431.225 879.379 434.084 888.143C435.852 899.152 435.414 902.65 434.084 907.858M391.37 896.358L434.084 907.858M434.084 907.858L476.798 919.358M434.084 907.858C438.058 892.111 442.148 885.887 455.441 883.215C477.264 890.255 475.586 901.502 476.798 919.358M476.798 919.358C478.195 904.185 476.944 891.608 485.012 889.786C497.726 885.515 503.237 885.513 511.298 888.143C532.695 899.925 529.379 901.249 531.012 906.215V917.715C515.009 923.522 503.023 923.828 476.798 919.358ZM301.012 829C306.419 840.356 314.16 845.655 328.941 848.715C343.913 842.044 346.913 837.168 347.012 827.358L301.012 829Z" stroke="black" stroke-width="2"/>
<path d="M368.37 638.429C322.45 662.657 308.654 679.255 324.012 718.929C357.221 728.685 375.426 728.936 406.155 707.429" stroke="black" stroke-width="2"/>
<path d="M355.225 393.643H140.643C84.3581 559.473 114.98 629.661 247.428 645C371.369 639.876 420.187 554.485 355.225 393.643Z" fill="#FCFAFC"/>
<path d="M734.726 423.215L534.298 408.429C477.829 450.528 461.588 480.187 462.012 544.786C473.786 653.347 514.759 684.541 629.583 704.143H636.155C798.991 658.563 832.205 603.057 734.726 423.215Z" fill="#FCFAFC"/>
<path d="M333.869 369C348.494 368.044 356.654 367.669 368.369 378.857C367.938 387.376 364.63 390.08 356.869 393.643M550.726 373.929C533.695 371.69 525.802 374.295 514.583 385.429C515.868 398.025 521.003 402.159 534.298 406.786M140.643 393.643H355.225C420.187 554.485 371.369 639.876 247.428 645C114.98 629.661 84.3581 559.473 140.643 393.643ZM534.298 408.429L734.726 423.215C832.205 603.057 798.991 658.563 636.155 704.143H629.583C514.759 684.541 473.786 653.347 462.012 544.786C461.588 480.187 477.829 450.528 534.298 408.429Z" stroke="black" stroke-width="2"/>
<path d="M159.727 439.643V446.214H163.012L166.298 449.5L169.584 451.143V452.786V454.429L172.869 459.357H182.727L189.298 452.786L190.941 446.214L186.012 441.286L182.727 436.357H174.512L166.298 439.643H159.727Z" fill="black" stroke="black" stroke-width="2"/>
<path d="M501.441 477.429V482.357H508.012V488.929L516.227 490.572L519.512 492.214V497.143L522.798 498.786L527.727 493.857L534.298 488.929V484L529.369 479.072L526.084 474.143L522.798 470.857H514.584V469.214L508.012 467.572L506.369 475.786L501.441 477.429Z" fill="black" stroke="black" stroke-width="2"/>
<path d="M337.786 1039.29C494.136 1084.86 588.079 1087.16 758.358 1047.5C769.073 989.985 781.824 974.382 849.727 939.071C904.831 942.337 927.652 956.376 954.869 1001.5L1084.66 1358C990.061 1361.89 950.85 1373.83 912.155 1417.14L908.969 1408.4C916.849 1437.03 924.318 1467.72 931.869 1502.57C958.294 1582.6 967.647 1626.8 976.227 1704.64C986.141 1848.91 991.418 1929.76 976.227 2071L419.298 2064.43C440.435 1817.09 439.279 1675.56 409.994 1417.14C354.889 1400.79 324.101 1397.23 269.798 1423.71C266.148 1265.42 277.218 1173.71 337.786 1039.29Z" fill="#F4F482"/>
<path d="M407.798 1264.36L409.994 1417.14M409.994 1417.14C439.279 1675.56 440.435 1817.09 419.298 2064.43L976.227 2071C991.418 1929.76 986.141 1848.91 976.227 1704.64C967.647 1626.8 958.294 1582.6 931.869 1502.57C903.095 1369.78 875.531 1297.38 821.798 1169.07L912.155 1417.14C950.85 1373.83 990.061 1361.89 1084.66 1358L954.869 1001.5C927.652 956.376 904.831 942.337 849.727 939.071C781.824 974.382 769.073 989.985 758.358 1047.5C588.079 1087.16 494.136 1084.86 337.786 1039.29C277.218 1173.71 266.148 1265.42 269.798 1423.71C324.101 1397.23 354.889 1400.79 409.994 1417.14Z" stroke="black" stroke-width="2"/>
<path d="M6.94138 1139.5C16.1686 1080.08 21.8725 1020.59 29.9414 1017.93C41.4477 1004.69 47.333 1022.68 56.2271 1128C58.2462 1108.94 56.6205 1119.41 69.37 1017.93C73.0495 1011.63 75.4107 1008.73 82.5128 1009.71C91.3561 1016.37 92.8633 1035.24 91.8471 1062.21C94.1147 1031.89 96.837 1012.54 102.227 1009.71C108.002 1001.69 111.239 997.487 117.013 1009.71C124.422 1048.66 122.252 1078.33 117.013 1132.93C126.707 1074.07 128.967 1026.93 149.87 1017.93C164.487 1006.36 160.21 1074.7 136.727 1193.71C146.161 1192.02 156.85 1190.56 184.37 1187.14C200.59 1190.08 206.596 1192.75 199.156 1203.57C167.858 1227.97 152.285 1242.75 136.727 1275.86C162.646 1377.55 180.738 1433.74 278.013 1519L289.513 1418.79C330.817 1404.47 356.15 1406.45 404.513 1425.36C408.331 1513.02 407.523 1562.75 394.656 1653.71C378.206 1680.65 364.174 1691.67 315.799 1691.5C142.974 1587.73 49.7672 1525.74 21.7271 1298.86C1.08798 1251.8 -4.7225 1219.53 6.94138 1139.5Z" fill="#FCC7A8"/>
<path d="M935.155 1509.14L915.441 1425.36C951.542 1377.13 981.248 1365.28 1046.87 1364.57C1070.05 1427.59 1077.18 1474.51 1081.37 1574.86C1085.83 1641.78 1050.98 1651.6 968.012 1653.71L935.155 1509.14Z" fill="#FCC7A8"/>
<path d="M935.155 1509.14L915.441 1425.36C951.542 1377.13 981.248 1365.28 1046.87 1364.57C1070.05 1427.59 1077.18 1474.51 1081.37 1574.86C1085.83 1641.78 1050.98 1651.6 968.012 1653.71L935.155 1509.14ZM935.155 1509.14C965.149 1526.57 983.745 1525.83 1017.3 1522.29M6.94138 1139.5C16.1686 1080.08 21.8725 1020.59 29.9414 1017.93C41.4477 1004.69 47.333 1022.68 56.2271 1128C58.2462 1108.94 56.6205 1119.41 69.37 1017.93C73.0495 1011.63 75.4107 1008.73 82.5128 1009.71C97.837 1021.24 91.1323 1069.48 87.4414 1132.93C91.7149 1063.68 93.3662 1014.35 102.227 1009.71C108.002 1001.69 111.239 997.487 117.013 1009.71C124.422 1048.66 122.252 1078.33 117.013 1132.93C126.707 1074.07 128.967 1026.93 149.87 1017.93C164.487 1006.36 160.21 1074.7 136.727 1193.71C146.161 1192.02 156.85 1190.56 184.37 1187.14C200.59 1190.08 206.596 1192.75 199.156 1203.57C167.858 1227.97 152.285 1242.75 136.727 1275.86C162.646 1377.55 180.738 1433.74 278.013 1519L289.513 1418.79C330.817 1404.47 356.15 1406.45 404.513 1425.36C408.331 1513.02 407.523 1562.75 394.656 1653.71C378.206 1680.65 364.174 1691.67 315.799 1691.5C142.974 1587.73 49.7672 1525.74 21.7271 1298.86C1.08798 1251.8 -4.7225 1219.53 6.94138 1139.5Z" stroke="black" stroke-width="2"/>
<path d="M878.286 894.714C878.286 894.714 919.006 936.823 975.214 909.5C1001.15 891.756 1004.79 853.643 1003.14 848.714C1001.5 843.786 1005.29 771.104 952.214 760" stroke="black" stroke-width="2"/>
</svg>
