<svg width="988" height="2082" viewBox="0 0 988 2082" fill="none" xmlns="http://www.w3.org/2000/svg">
<g filter="url(#filter0_d_16_4)">
<path d="M860.097 671.371C844.434 686.448 841.271 696.807 848.631 719.709L867.741 733.343C883.725 717.673 895.684 709.515 922.524 696.16C946.475 695.437 958.109 692.107 973.485 677.568C980.097 650.547 983.379 635.386 982.403 608.161C971.178 603.654 964.868 601.581 953.101 608.161C940.846 604.996 934.078 605.252 922.524 614.358L922.401 614.338C909.005 612.136 901.461 610.897 888.125 621.794C874.702 621.086 868.058 622.32 860.097 631.71V671.371Z" fill="#E0D6CD"/>
<path d="M922.524 614.358C909.051 612.144 901.502 610.864 888.125 621.794C874.702 621.086 868.058 622.32 860.097 631.71V671.371C844.434 686.448 841.271 696.807 848.631 719.709L867.741 733.343C883.725 717.673 895.684 709.515 922.524 696.16C946.475 695.437 958.109 692.107 973.485 677.568C980.097 650.547 983.379 635.386 982.403 608.161C971.178 603.654 964.868 601.581 953.101 608.161M922.524 614.358C934.078 605.252 940.846 604.996 953.101 608.161M922.524 614.358C932.525 632.246 933.653 642.651 932.716 661.456M953.101 608.161C958.287 626.554 957.29 636.866 953.101 655.259M861.371 667.653C866.349 672.352 869.131 671.854 874.111 667.653C876.575 656.942 874.88 652.171 867.741 645.343M907.236 663.935C904.551 646.989 900.783 637.952 888.125 623.034" stroke="black" stroke-width="2"/>
<path d="M168.762 501.884C182.621 552.3 198.146 576.864 225.219 620.973C238.496 627.455 245.19 624.593 257.297 620.973C267.938 610.407 270.299 603.557 273.977 591.2C273.845 584.574 274.471 580.791 277.759 573.833L279.11 567.631L288.092 556.466C294.592 546.293 295.389 540.589 288.092 530.416L276.583 522.324L273.977 520.491C271.601 511.632 269.718 509.77 266.081 508.086L263.712 504.365C256.627 494.185 251.977 491.653 243.183 489.479C241.191 482.095 238.469 478.951 231.635 474.593C204.782 479.073 191.004 484.88 168.762 501.884Z" fill="#E0D6CD"/>
<path d="M243.183 489.479C241.191 482.095 238.469 478.951 231.635 474.593C204.782 479.073 191.004 484.88 168.762 501.884C182.621 552.3 198.146 576.864 225.219 620.973C238.496 627.455 245.19 624.593 257.297 620.973C267.938 610.407 270.299 603.557 273.977 591.2C273.845 584.574 274.471 580.791 277.759 573.833M243.183 489.479C251.977 491.653 256.627 494.185 263.712 504.365L266.081 508.086M243.183 489.479C223.999 493.62 213.682 498.072 195.708 508.086M234.201 474.593L263.712 480.795C275.399 490.247 296.045 495.49 304.772 496.922C313.499 498.354 286.384 517.058 279.11 520.491L273.977 524.213C254.518 528.34 245.676 531.829 234.201 540.34M217.52 526.694C232.682 516.543 243.583 512.656 266.081 508.086M266.081 508.086C269.718 509.77 271.601 511.632 273.977 520.491L288.092 530.416C295.389 540.589 294.592 546.293 288.092 556.466L279.11 567.631L277.759 573.833M250.881 556.466C256.085 557.887 258.909 557.397 263.712 553.365M276.544 550.264C271.694 549.736 268.946 549.67 263.712 553.365M263.712 553.365C264.193 567.224 269.59 568.987 277.759 573.833" stroke="black" stroke-width="2"/>
<path d="M833.214 719.582C818.752 727.758 814.304 733.721 811.714 746.878L849.655 766.73C863.744 760.636 869.181 755.782 869.891 741.915C858.967 723.839 850.353 720.553 833.214 719.582Z" fill="#A2DFE0"/>
<path d="M260.291 629.008H221.085C217.975 641.122 218.219 647.913 221.085 660.027C254.937 660.881 256.497 660.027 260.291 651.341C264.085 642.656 268.602 637.013 260.291 629.008Z" fill="#A2DFE0"/>
<path d="M833.214 719.582C818.752 727.758 814.304 733.721 811.714 746.878L849.655 766.73C863.744 760.636 869.181 755.782 869.891 741.915C858.967 723.839 850.353 720.553 833.214 719.582Z" stroke="black" stroke-width="2"/>
<path d="M260.291 629.008H221.085C217.975 641.122 218.219 647.913 221.085 660.027C254.937 660.881 256.497 660.027 260.291 651.341C264.085 642.656 268.602 637.013 260.291 629.008Z" stroke="black" stroke-width="2"/>
<path d="M452.553 1188.24H406.645L408.999 1221.63H451.375L452.553 1188.24Z" fill="#F1DD40" stroke="black" stroke-width="2"/>
<path d="M123.726 1960.32L118.681 1914.92C135.369 1909.26 144.751 1909.16 161.564 1912.33C170.952 1931.07 169.577 1941.58 165.347 1960.32H123.726Z" fill="#E0D6CD"/>
<path d="M581.558 1914.92L573.991 1948.65L620.657 1953.83C617.265 1943.33 614.287 1937.46 632.008 1926.6C614.582 1917.1 604.142 1913.21 581.558 1914.92Z" fill="#E0D6CD"/>
<path d="M123.726 1960.32L118.681 1914.92C135.369 1909.26 144.751 1909.16 161.564 1912.33C170.952 1931.07 169.577 1941.58 165.347 1960.32H123.726Z" stroke="black" stroke-width="2"/>
<path d="M581.558 1914.92L573.991 1948.65L620.657 1953.83C617.265 1943.33 614.287 1937.46 632.008 1926.6C614.582 1917.1 604.142 1913.21 581.558 1914.92Z" stroke="black" stroke-width="2"/>
<path d="M168.6 1956.77H111.436C46.3401 2003.46 24.7096 2025.81 6 2060.53C75.881 2081.85 112.456 2072.94 177.492 2055.4C180.137 2017.06 179.311 1995.49 168.6 1956.77Z" fill="#4E4E4E"/>
<path d="M628.453 1947.8C605.139 1955.72 592.065 1953.83 568.749 1947.8C553.447 1982.44 549.127 2002.6 557.316 2041.31C634.648 2051.25 749.133 2051.56 756.755 2046.44C764.377 2041.31 674.255 1988.37 628.453 1947.8Z" fill="#4E4E4E"/>
<path d="M168.6 1956.77H111.436C46.3401 2003.46 24.7096 2025.81 6 2060.53C75.881 2081.85 112.456 2072.94 177.492 2055.4C180.137 2017.06 179.311 1995.49 168.6 1956.77Z" stroke="black" stroke-width="2"/>
<path d="M628.453 1947.8C605.139 1955.72 592.065 1953.83 568.749 1947.8C553.447 1982.44 549.127 2002.6 557.316 2041.31C634.648 2051.25 749.133 2051.56 756.755 2046.44C764.377 2041.31 674.255 1988.37 628.453 1947.8Z" stroke="black" stroke-width="2"/>
<path d="M481.432 1274.02C433.973 1266.06 408.205 1266.72 363.224 1274.02C287.783 1399.71 238.784 1465.14 145.874 1577.7C137.143 1705.12 146.475 1777 170.024 1905.42L92.4893 1914.28C59.9268 1786.9 65.3521 1719.14 81.0498 1599.21C176.927 1445.93 244.336 1362.44 363.224 1213.28C413.794 1230.09 453.604 1226.19 529.732 1213.28C618.206 1359.18 643.994 1455.52 698.782 1621.99C692.379 1739.32 681.101 1806.28 653.024 1926.93L578.032 1914.28C610.988 1800.66 622.279 1736.69 626.332 1621.99C582.417 1470.99 550.198 1395.42 481.432 1274.02Z" fill="#907650" stroke="black" stroke-width="2"/>
<path d="M271.419 653.241C248.4 666.669 234.623 668.268 208.915 663.389C201.304 773.422 208.855 833.952 216.569 942.478C227.243 999.292 241.236 1000.41 267.592 997.027C323.55 947.971 330.666 908.576 341.576 840.991L332.647 942.478C324.31 1061.09 315.605 1127.31 267.592 1243.13C223.225 1341.24 190.254 1393.24 119.624 1481.63C86.9255 1527.92 76.7439 1556.26 68.6008 1609.75C171.852 1496.65 234.508 1443.93 317.34 1285C368.565 1199.93 391.214 1148.08 409.183 1040.16L430.867 743.31L452.552 587.274C406.301 588.973 380.185 588.42 336.474 611.377C308.777 683.301 298.343 725.985 284.211 804.202C285.02 741.235 284.43 706.658 271.419 653.241Z" fill="#FAFAFA"/>
<path d="M290.553 879.049L284.211 804.202M284.211 804.202C285.02 741.235 284.43 706.658 271.419 653.241C248.4 666.669 234.623 668.268 208.915 663.389C201.304 773.422 208.855 833.952 216.569 942.478C227.243 999.292 241.236 1000.41 267.592 997.027C323.55 947.971 330.666 908.576 341.576 840.991M284.211 804.202C298.343 725.985 308.777 683.301 336.474 611.377C380.185 588.42 406.301 588.973 452.552 587.274L430.867 743.31L409.183 1040.16C391.214 1148.08 368.565 1199.93 317.34 1285C234.508 1443.93 171.852 1496.65 68.6008 1609.75C76.7439 1556.26 86.9255 1527.92 119.624 1481.63C190.254 1393.24 223.225 1341.24 267.592 1243.13C315.605 1127.31 324.31 1061.09 332.647 942.478L341.576 840.991M341.576 840.991C356.062 783.747 360.66 751.456 368.364 693.835L361.986 748.385M361.986 748.385C386.708 687.197 405.253 654.879 444.899 599.96M361.986 748.385C372.839 769.938 382.858 780.586 405.356 797.859C380.704 812.955 364.874 818.682 349.23 846.066C358.364 922.595 366.786 965.002 384.946 1040.16" stroke="black" stroke-width="2"/>
<path d="M675.565 649.05C635.87 617.069 609.355 604.857 552.6 595.621C539.923 722.999 530.586 833.303 520.907 908.565L494.286 1189.71C494.576 1257.64 517.938 1304.84 570.347 1393.25C617.904 1501.45 653.181 1556.53 721.202 1651.49C648.139 1469.59 601.094 1369.32 565.276 1176.98C562.433 1124.72 568.421 1096.65 583.024 1047.23C606.897 963.307 606.295 916.75 610.913 833.509C617.678 894.968 619.185 928.87 634.999 992.525C661.99 1015.72 677.351 1014.57 704.722 986.165C765.367 914.169 800.122 870.761 865.718 778.808C839.548 775.39 824.962 775.144 797.263 741.916C763.707 805.653 743.278 840.606 689.509 894.571C690.244 803.484 686.915 749.512 675.565 649.05Z" fill="#FAFAFA"/>
<path d="M523.443 1051.04L593.165 875.489L555.135 808.066L604.575 773.719L565.276 609.614M629.928 684.67L610.913 828.421M552.6 595.621C609.355 604.857 635.87 617.069 675.565 649.05C686.915 749.512 690.244 803.484 689.509 894.571C743.278 840.606 763.707 805.653 797.263 741.916C824.962 775.144 839.548 775.39 865.718 778.808C800.122 870.761 765.367 914.169 704.722 986.165C677.351 1014.57 661.99 1015.72 634.999 992.525C619.185 928.87 617.678 894.968 610.913 833.509C606.295 916.75 606.897 963.307 583.024 1047.23C568.421 1096.65 562.433 1124.72 565.276 1176.98C601.094 1369.32 648.139 1469.59 721.202 1651.49C653.181 1556.53 617.904 1501.45 570.347 1393.25C517.938 1304.84 494.576 1257.64 494.286 1189.71L520.907 908.565C530.586 833.303 539.923 722.999 552.6 595.621Z" stroke="black" stroke-width="2"/>
<path d="M544.367 621.169C507.391 646.496 486.593 646.241 449.445 612.315C424.759 845.537 411.546 977.525 373.258 1184.07H484.417L544.367 621.169Z" fill="#9EE1E0"/>
<path d="M434.458 847.594C465.153 865.374 482.363 865.855 513.143 855.184M449.445 612.315C486.593 646.241 507.391 646.496 544.367 621.169L484.417 1184.07H373.258C411.546 977.525 424.759 845.537 449.445 612.315Z" stroke="black" stroke-width="2"/>
<path d="M547.108 588.5C513.011 590.848 494.606 587.139 463.75 566.407C457.736 573.939 455.159 582.589 452.552 608.137C486.443 637.708 505.572 640.703 539.643 619.184C546.959 611.466 550.82 606.909 547.108 588.5Z" fill="#E0D6CD" stroke="black" stroke-width="2"/>
<path d="M423.914 522.496H395.812C394.708 508.488 396.449 499.42 402.199 481.851C371.976 485.285 359.644 482.484 339.608 475.5C343.542 454.225 350.321 441.766 372.819 418.343L303.842 377.698C325.453 355.174 342.468 345.665 377.929 331.972C348.776 304.183 329.494 292.206 289.791 277.355C331.328 258.166 355.868 251.383 402.199 246.871C373.363 195.312 362.698 164.982 353.659 108.423C403.269 136.683 433.136 148.641 491.615 163.04C511.592 114.337 517.368 78.2025 520.994 3C564.69 51.1828 580.35 80.233 595.082 135.097C644.521 89.2388 671.869 70.8336 720.264 44.9153C718.771 74.5122 728.051 86.4294 710.045 123.665C685.294 156.621 682.583 170.587 685.775 192.254C744.08 205.773 777.202 203.039 836.504 192.254C799.147 205.827 783.187 217.511 764.972 246.871C750.224 276.555 734.458 287.182 710.045 309.109C748.697 330.395 770.181 332.504 808.402 331.972C765.86 352.94 740.126 360.017 710.045 411.992C717.643 437.338 733.501 445.279 764.972 457.718C752.924 468.238 738.105 470.508 699.826 469.149C703.733 482.609 705.949 495.965 710.045 535.198C684.65 533.807 673.124 529.228 655.118 517.415C654.338 533.103 652.947 541.977 647.454 558.061L634.68 549.169L655.118 517.415C660.676 506.986 663.055 497.782 666.614 478.04C674.188 447.831 677.337 429.321 680.665 392.94C688.234 331.833 687.345 297.191 669.169 234.169C648.113 195.268 631.12 176.292 563.147 163.04C514.868 170.349 488.702 176.966 453.294 220.198C436.077 254.742 427.842 275.121 418.805 315.46C412.283 342.694 411.086 358.405 409.863 386.589C408.662 408.213 408.211 420.189 409.863 439.936C403.689 456.191 402.204 465.376 402.199 481.851C407.382 499.229 413.147 507.666 423.914 522.496Z" fill="#B3DCF2"/>
<path d="M402.199 481.851C396.449 499.42 394.708 508.488 395.812 522.496H423.914C413.147 507.666 407.382 499.229 402.199 481.851ZM402.199 481.851C371.976 485.285 359.644 482.484 339.608 475.5C343.542 454.225 350.321 441.766 372.819 418.343L303.842 377.698C325.453 355.174 342.468 345.665 377.929 331.972C348.776 304.183 329.494 292.206 289.791 277.355C331.328 258.166 355.868 251.383 402.199 246.871C373.363 195.312 362.698 164.982 353.659 108.423C403.269 136.683 433.136 148.641 491.615 163.04C511.592 114.337 517.368 78.2025 520.994 3C564.69 51.1828 580.35 80.233 595.082 135.097C644.521 89.2388 671.869 70.8336 720.264 44.9153C718.771 74.5122 728.051 86.4294 710.045 123.665C685.294 156.621 682.583 170.587 685.775 192.254C744.08 205.773 777.202 203.039 836.504 192.254C799.147 205.827 783.187 217.511 764.972 246.871C750.224 276.555 734.458 287.182 710.045 309.109C748.697 330.395 770.181 332.504 808.402 331.972C765.86 352.94 740.126 360.017 710.045 411.992C717.643 437.338 733.501 445.279 764.972 457.718C752.924 468.238 738.105 470.508 699.826 469.149C703.733 482.609 705.949 495.965 710.045 535.198C684.65 533.807 673.124 529.228 655.118 517.415M402.199 481.851C402.204 465.376 403.689 456.191 409.863 439.936C408.211 420.189 408.662 408.213 409.863 386.589C411.086 358.405 412.283 342.694 418.805 315.46C427.842 275.121 436.077 254.742 453.294 220.198C488.702 176.966 514.868 170.349 563.147 163.04C631.12 176.292 648.113 195.268 669.169 234.169C687.345 297.191 688.234 331.833 680.665 392.94C677.337 429.321 674.188 447.831 666.614 478.04C663.055 497.782 660.676 506.986 655.118 517.415M655.118 517.415C654.338 533.103 652.947 541.977 647.454 558.061L634.68 549.169L655.118 517.415Z" stroke="black" stroke-width="2"/>
<path d="M403.009 1188.24H369.705L360.738 1213.28L403.009 1218.85V1188.24Z" fill="#423E25"/>
<path d="M456.809 1225.8V1188.24L459.37 1189.63L490.113 1188.24V1218.85L456.809 1225.8Z" fill="#423E25"/>
<path d="M403.009 1188.24H369.705L360.738 1213.28L403.009 1218.85V1188.24Z" stroke="black" stroke-width="2"/>
<path d="M456.809 1225.8V1188.24L459.37 1189.63L490.113 1188.24V1218.85L456.809 1225.8Z" stroke="black" stroke-width="2"/>
<path d="M413.664 441.75C405.482 449.881 403.281 460.144 404.711 491.524C424.27 519.94 437.635 536.091 468.663 565.547C496.141 589.413 514.057 592.776 547.963 591.072C599.105 584.486 624.88 572.217 659.238 515.773C663.221 508.907 664.878 501.975 665.634 477.486C708.247 463.185 707.201 449.527 677.145 418.778C684.216 371.445 688.391 345.058 682.261 288.6C677.864 250.481 675.874 229.133 633.658 189.052C590.491 166.023 564.185 155.605 508.314 178.842C484.307 187.024 472.013 201.276 452.035 224.787L451.943 225.02C427.167 287.899 413.096 323.608 408.39 389.141C370.817 413.291 376.877 430.944 413.664 441.75Z" fill="#E0D6CD" stroke="black" stroke-width="2"/>
<path d="M478.4 433.82C458.676 430.859 448.998 434.443 433.873 448.711L427.512 478.493C428.921 505.619 444.34 518.417 491.123 538.058C517.746 544.562 538.836 545.786 582.721 545.503C620.267 531.516 641.851 524.095 634.882 474.771C635.726 459.456 631.57 452.913 590.355 456.157L569.999 464.843C547.721 466.907 536.577 466.022 519.111 461.121C506.044 447.446 496.593 442.04 478.4 433.82Z" fill="#7F3438" stroke="black" stroke-width="2"/>
<path d="M486.96 462.351C477.032 454.661 475.821 448.983 479.5 437.032L503.122 449.089L523.013 464.762L545.391 468.379H549.121L570.255 467.174L593.876 458.734H615.011C616.104 467.411 614.564 471.376 605.065 475.613C596.711 471.408 595.347 468.048 594.67 463.849C595.595 471.689 594.298 477.197 585.174 485.258C577.064 479.191 574.374 474.982 570.255 467.174C571.944 473.765 571.688 477.461 570.255 484.053C567.557 488.825 565.065 490.429 559.066 491.286C554.312 490.303 551.561 489.97 549.121 482.847C547.639 477.013 547.809 473.867 549.121 468.379H545.391C546.641 474.956 546.681 478.637 544.148 485.258C536.334 487.415 531.965 488.405 524.256 484.053C522.021 478.659 522.124 473.98 523.013 464.762C522.462 467.855 519.791 471.589 511.824 481.641C502.731 470.603 500.392 463.61 503.122 449.089C497.288 457.159 493.562 460.503 486.96 462.351Z" fill="#E4D7B7"/>
<path d="M503.122 449.089C497.288 457.159 493.562 460.503 486.96 462.351C477.032 454.661 475.821 448.983 479.5 437.032L503.122 449.089ZM503.122 449.089C500.392 463.61 502.731 470.603 511.824 481.641C519.791 471.589 522.462 467.855 523.013 464.762M503.122 449.089L523.013 464.762M523.013 464.762C522.124 473.98 522.021 478.659 524.256 484.053C531.965 488.405 536.334 487.415 544.148 485.258C546.681 478.637 546.641 474.956 545.391 468.379M523.013 464.762L545.391 468.379M545.391 468.379H549.121M549.121 468.379C547.809 473.867 547.639 477.013 549.121 482.847C551.561 489.97 554.312 490.303 559.066 491.286C565.065 490.429 567.557 488.825 570.255 484.053C571.688 477.461 571.944 473.765 570.255 467.174M549.121 468.379L570.255 467.174M570.255 467.174C574.374 474.982 577.064 479.191 585.174 485.258C596.153 475.557 595.799 469.554 593.876 458.734M570.255 467.174L593.876 458.734M593.876 458.734C595.298 465.669 593.607 469.846 605.065 475.613C614.564 471.376 616.104 467.411 615.011 458.734H593.876Z" stroke="black" stroke-width="2"/>
<path d="M448.379 511.736C450.228 509.106 452.026 507.976 459.681 507.98C468.293 513.231 468.397 517.504 467.215 525.508C469.938 520.947 471.768 518.683 477.26 516.744C488.737 518.546 488.496 523.954 487.306 534.272C487.295 534.368 487.285 534.46 487.275 534.55L488.782 534.891C490.964 530.594 494.76 520.686 496.096 521.752C504.627 519.98 507.502 520.614 509.909 524.256L513.676 540.532C516.552 534.412 518.242 531.143 523.722 530.516C527.626 529.684 529.867 529.708 533.767 530.516C538.053 533.922 540.267 536.04 541.302 543.036C543.042 535.741 544.589 532.535 551.347 533.02C560.311 535.012 561.748 538.687 563.904 545.54C564.608 537.357 565.933 533.285 576.462 530.516C585.537 532.104 589.229 533.398 587.763 538.028C587.115 542.8 588.483 541.958 590.274 541.784L563.904 545.54L541.302 543.036L513.676 540.532L488.782 534.891C487.628 537.163 486.925 537.867 487.275 534.55L486.05 534.272C478.015 533.085 473.475 532.533 467.215 525.508C458.541 521.5 454.47 518.42 448.379 511.736Z" fill="#E4D7B7"/>
<path d="M467.215 525.508C468.397 517.504 468.293 513.231 459.681 507.98C452.026 507.976 450.228 509.106 448.379 511.736C454.47 518.42 458.541 521.5 467.215 525.508ZM467.215 525.508C469.938 520.947 471.768 518.683 477.26 516.744C488.737 518.546 488.496 523.954 487.306 534.272C486.117 544.591 494.035 520.107 496.096 521.752C504.627 519.98 507.502 520.614 509.909 524.256L513.676 540.532M467.215 525.508C473.475 532.533 478.015 533.085 486.05 534.272L513.676 540.532M513.676 540.532C516.552 534.412 518.242 531.143 523.722 530.516C527.626 529.684 529.867 529.708 533.767 530.516C538.053 533.922 540.267 536.04 541.302 543.036M513.676 540.532L541.302 543.036M541.302 543.036C543.042 535.741 544.589 532.535 551.347 533.02C560.311 535.012 561.748 538.687 563.904 545.54M541.302 543.036L563.904 545.54M563.904 545.54C564.608 537.357 565.933 533.285 576.462 530.516C585.537 532.104 589.229 533.398 587.763 538.028C587.115 542.8 588.483 541.958 590.274 541.784L563.904 545.54Z" stroke="black" stroke-width="2"/>
<path d="M542.345 232.81C474.439 234.104 453.565 237.433 463.069 250.465C480.346 256.84 507.29 257.488 575.79 255.173L624.098 265.766C657.003 271.508 670.388 272.662 663.736 262.235C658.752 259.716 655.654 258.19 636.485 250.465C604.846 234.71 583.892 231.468 542.345 232.81Z" fill="#B3DCF2" stroke="black" stroke-width="2"/>
<path d="M527.404 496.077C516.333 498.198 511.972 502.765 506.807 515.868C514.385 517.669 517.071 520.686 516.5 533.02C520.02 527.233 523.207 525.731 532.251 526.423C541.262 519.476 543.997 515.172 544.367 506.632C544.023 496.443 540.143 494.161 527.404 496.077Z" fill="#E25960" stroke="black" stroke-width="2"/>
<path d="M414.992 438.423C428.349 421.85 438.269 418.754 456.876 415.514M618.068 440.969C649.774 449.266 655.54 458.058 661.222 475.333C660.739 525.431 643.259 539.493 604.106 558.061M579.991 398.969C604.777 418.763 619.819 420.527 649.799 406.605M441.645 383.696C468.87 404.017 484.53 403.832 512.722 396.423M530.491 378.605V428.242C540.894 448.762 546.739 446.469 557.145 428.242L560.953 383.696" stroke="black" stroke-width="2"/>
<path d="M486.663 274.27C450.261 279.31 439.814 291.786 435.859 328.107C439.715 358.243 451.801 367.37 486.663 373.18C524.66 370.892 536.957 360.611 541.278 324.351C541.625 292.547 532.449 280.002 486.663 274.27Z" fill="white"/>
<path d="M612.404 288.042C582.781 291.338 571.88 299.177 566.68 328.107C560.992 363.412 569.492 377.074 612.404 386.952C655.311 381.163 669.983 370.066 669.559 328.107C662.969 307.12 652.72 297.575 612.404 288.042Z" fill="white"/>
<path d="M486.663 274.27C450.261 279.31 439.814 291.786 435.859 328.107C439.715 358.243 451.801 367.37 486.663 373.18C524.66 370.892 536.957 360.611 541.278 324.351C541.625 292.547 532.449 280.002 486.663 274.27Z" stroke="black" stroke-width="2"/>
<path d="M612.404 288.042C582.781 291.338 571.88 299.177 566.68 328.107C560.992 363.412 569.492 377.074 612.404 386.952C655.311 381.163 669.983 370.066 669.559 328.107C662.969 307.12 652.72 297.575 612.404 288.042Z" stroke="black" stroke-width="2"/>
<path d="M448.379 323.755V326.139V327.332V329.717H457.396L459.972 328.524V322.562L456.108 320.177L453.531 321.37L450.955 323.755H448.379Z" fill="black"/>
<path d="M653.184 344.025L648.032 345.218L644.168 346.41L645.456 352.372L649.32 353.564H657.049V348.795V344.025H653.184Z" fill="black"/>
<path d="M448.379 323.755V326.139V327.332V329.717H457.396L459.972 328.524V322.562L456.108 320.177L453.531 321.37L450.955 323.755H448.379Z" stroke="black" stroke-width="2"/>
<path d="M653.184 344.025L648.032 345.218L644.168 346.41L645.456 352.372L649.32 353.564H657.049V348.795V344.025H653.184Z" stroke="black" stroke-width="2"/>
</g>
<defs>
<filter id="filter0_d_16_4" x="0.540649" y="0.53833" width="987.032" height="2081.46" filterUnits="userSpaceOnUse" color-interpolation-filters="sRGB">
<feFlood flood-opacity="0" result="BackgroundImageFix"/>
<feColorMatrix in="SourceAlpha" type="matrix" values="0 0 0 0 0 0 0 0 0 0 0 0 0 0 0 0 0 0 127 0" result="hardAlpha"/>
<feOffset dy="4"/>
<feGaussianBlur stdDeviation="2"/>
<feComposite in2="hardAlpha" operator="out"/>
<feColorMatrix type="matrix" values="0 0 0 0 0 0 0 0 0 0 0 0 0 0 0 0 0 0 0.25 0"/>
<feBlend mode="normal" in2="BackgroundImageFix" result="effect1_dropShadow_16_4"/>
<feBlend mode="normal" in="SourceGraphic" in2="effect1_dropShadow_16_4" result="shape"/>
</filter>
</defs>
</svg>
